<svg width="32" height="32" viewBox="0 0 32 32" fill="none" xmlns="http://www.w3.org/2000/svg">
<rect width="32" height="32" fill="#19193D"/>
<g clip-path="url(#clip0_105_89)">
<mask id="mask0_105_89" style="mask-type:luminance" maskUnits="userSpaceOnUse" x="2" y="2" width="28" height="28">
<path d="M30 2H2V30H30V2Z" fill="white"/>
</mask>
<g mask="url(#mask0_105_89)">
<path d="M23.723 6.36152C23.723 6.52677 23.6574 6.68525 23.5405 6.8021C23.4237 6.91895 23.2652 6.9846 23.1 6.9846C22.2737 6.9846 21.4813 7.31282 20.8971 7.89707C20.3128 8.48131 19.9846 9.27372 19.9846 10.1C19.9846 10.2652 19.9189 10.4237 19.8021 10.5405C19.6852 10.6574 19.5268 10.723 19.3615 10.723C19.1963 10.723 19.0378 10.6574 18.9209 10.5405C18.8041 10.4237 18.7384 10.2652 18.7384 10.1C18.7384 9.27372 18.4102 8.48131 17.826 7.89707C17.2417 7.31282 16.4493 6.9846 15.6231 6.9846C15.4578 6.9846 15.2993 6.91895 15.1825 6.8021C15.0656 6.68525 15 6.52677 15 6.36152C15 6.19627 15.0656 6.03779 15.1825 5.92094C15.2993 5.80409 15.4578 5.73845 15.6231 5.73845C16.4493 5.73845 17.2417 5.41022 17.826 4.82598C18.4102 4.24173 18.7384 3.44933 18.7384 2.62307C18.7384 2.45782 18.8041 2.29934 18.9209 2.18249C19.0378 2.06565 19.1963 2 19.3615 2C19.5268 2 19.6852 2.06565 19.8021 2.18249C19.9189 2.29934 19.9846 2.45782 19.9846 2.62307C19.9846 3.44933 20.3128 4.24173 20.8971 4.82598C21.4813 5.41022 22.2737 5.73845 23.1 5.73845C23.2652 5.73845 23.4237 5.80409 23.5405 5.92094C23.6574 6.03779 23.723 6.19627 23.723 6.36152Z" fill="#0077FF"/>
<path d="M29.9539 10.0922C29.9539 10.2333 29.8979 10.3685 29.7981 10.4683C29.6984 10.568 29.5631 10.6241 29.4221 10.6241C28.7168 10.6241 28.0404 10.9042 27.5416 11.403C27.0429 11.9017 26.7627 12.5781 26.7627 13.2834C26.7627 13.4244 26.7067 13.5597 26.607 13.6594C26.5072 13.7592 26.3719 13.8152 26.2309 13.8152C26.0898 13.8152 25.9545 13.7592 25.8548 13.6594C25.755 13.5597 25.699 13.4244 25.699 13.2834C25.699 12.5781 25.4188 11.9017 24.9201 11.403C24.4214 10.9042 23.745 10.6241 23.0397 10.6241C22.8986 10.6241 22.7633 10.568 22.6636 10.4683C22.5638 10.3685 22.5078 10.2333 22.5078 10.0922C22.5078 9.95114 22.5638 9.81586 22.6636 9.71611C22.7633 9.61637 22.8986 9.56033 23.0397 9.56033C23.745 9.56033 24.4214 9.28016 24.9201 8.78144C25.4188 8.28271 25.699 7.6063 25.699 6.90101C25.699 6.75995 25.755 6.62467 25.8548 6.52492C25.9545 6.42518 26.0898 6.36914 26.2309 6.36914C26.3719 6.36914 26.5072 6.42518 26.607 6.52492C26.7067 6.62467 26.7627 6.75995 26.7627 6.90101C26.7627 7.6063 27.0429 8.28271 27.5416 8.78144C28.0404 9.28016 28.7168 9.56033 29.4221 9.56033C29.5631 9.56033 29.6984 9.61637 29.7981 9.71611C29.8979 9.81586 29.9539 9.95114 29.9539 10.0922Z" fill="#0077FF"/>
<path d="M24.1078 14.5231C24.1078 14.6292 24.0656 14.7309 23.9906 14.8059C23.9156 14.8809 23.8139 14.9231 23.7078 14.9231C23.1774 14.9231 22.6687 15.1338 22.2936 15.5089C21.9185 15.8839 21.7078 16.3926 21.7078 16.9231C21.7078 17.0292 21.6657 17.1309 21.5906 17.2059C21.5156 17.2809 21.4139 17.3231 21.3078 17.3231C21.2017 17.3231 21.1 17.2809 21.025 17.2059C20.9499 17.1309 20.9078 17.0292 20.9078 16.9231C20.9078 16.3926 20.6971 15.8839 20.322 15.5089C19.9469 15.1338 19.4382 14.9231 18.9078 14.9231C18.8017 14.9231 18.7 14.8809 18.625 14.8059C18.55 14.7309 18.5078 14.6292 18.5078 14.5231C18.5078 14.417 18.55 14.3153 18.625 14.2402C18.7 14.1652 18.8017 14.1231 18.9078 14.1231C19.4382 14.1231 19.9469 13.9124 20.322 13.5373C20.6971 13.1622 20.9078 12.6535 20.9078 12.1231C20.9078 12.017 20.9499 11.9153 21.025 11.8403C21.1 11.7653 21.2017 11.7231 21.3078 11.7231C21.4139 11.7231 21.5156 11.7653 21.5906 11.8403C21.6657 11.9153 21.7078 12.017 21.7078 12.1231C21.7078 12.6535 21.9185 13.1622 22.2936 13.5373C22.6687 13.9124 23.1774 14.1231 23.7078 14.1231C23.8139 14.1231 23.9156 14.1652 23.9906 14.2402C24.0656 14.3153 24.1078 14.417 24.1078 14.5231Z" fill="#0077FF"/>
<path d="M14.3994 16.2002C14.3994 15.5377 13.8626 15.0002 13.2002 15C12.5376 15 12 15.5376 12 16.2002C12.0001 16.6122 12.1895 17.4084 12.5391 18.1094C12.7095 18.451 12.8887 18.709 13.0479 18.8672C13.1195 18.9383 13.1705 18.9721 13.1992 18.9883C13.2278 18.9723 13.2792 18.939 13.3516 18.8672C13.5107 18.709 13.6899 18.4511 13.8604 18.1094C14.2099 17.4084 14.3993 16.6122 14.3994 16.2002ZM16.3994 16.2002C16.3993 17.0031 16.0968 18.1069 15.6504 19.002C15.4229 19.4581 15.1277 19.9216 14.7607 20.2861C14.4011 20.6433 13.8728 20.9998 13.2002 21C12.5274 21 11.9984 20.6434 11.6387 20.2861C11.2717 19.9216 10.9765 19.4581 10.749 19.002C10.3027 18.1069 10.0001 17.0031 10 16.2002C10 14.433 11.433 13 13.2002 13C14.9672 13.0002 16.3994 14.4332 16.3994 16.2002Z" fill="#0077FF"/>
<path d="M17 28V27C17 25.9911 16.5925 25.2892 15.9414 24.8086C15.2559 24.3026 14.2344 24 13 24C11.7656 24 10.7441 24.3026 10.0586 24.8086C9.40753 25.2892 9 25.9911 9 27C9 27.5523 8.55228 28 8 28C7.44772 28 7 27.5523 7 27C7 25.3523 7.71175 24.0544 8.87012 23.1992C9.99427 22.3694 11.473 22 13 22C14.527 22 16.0057 22.3694 17.1299 23.1992C18.2883 24.0544 19 25.3523 19 27V28C19 28.5523 18.5523 29 18 29C17.4477 29 17 28.5523 17 28Z" fill="#0077FF"/>
<path d="M14.0508 30C7.39335 30 2 24.5921 2 17.9258C2.0001 12.1194 6.09063 7.26943 11.5449 6.11327L12.0762 6.01366L12.1787 6.00194C12.6844 5.97045 13.1422 6.32619 13.2266 6.8369C13.3109 7.34767 12.992 7.83203 12.5029 7.96483L12.4023 7.98632L11.959 8.0703C7.41366 9.0343 4.0001 13.0802 4 17.9258C4 23.4915 8.50188 28 14.0508 28C19.1351 28 23.3412 24.2143 24.0088 19.2988C24.0831 18.7516 24.5875 18.3681 25.1348 18.4424C25.6818 18.5168 26.0652 19.0204 25.9912 19.5674C25.1913 25.4578 20.1524 30 14.0508 30Z" fill="#0077FF"/>
</g>
</g>
<defs>
<clipPath id="clip0_105_89">
<rect width="28" height="28" fill="white" transform="translate(2 2)"/>
</clipPath>
</defs>
</svg>
