<svg width="100" height="100" viewBox="0 0 100 100" fill="none" xmlns="http://www.w3.org/2000/svg">
<rect width="100" height="100" fill="#1E1E1E"/>
<g clip-path="url(#clip0_108_28)">
<path d="M67.3362 28.4855C67.3362 28.8544 67.1897 29.2081 66.9287 29.469C66.6679 29.7298 66.314 29.8763 65.945 29.8763C64.1 29.8763 62.3306 30.609 61.0261 31.9131C59.7215 33.2171 58.9886 34.986 58.9886 36.8303C58.9886 37.1991 58.842 37.5529 58.5811 37.8136C58.3201 38.0745 57.9662 38.221 57.5972 38.221C57.2282 38.221 56.8744 38.0745 56.6135 37.8136C56.3526 37.5529 56.206 37.1991 56.206 36.8303C56.206 34.986 55.4731 33.2171 54.1685 31.9131C52.8639 30.609 51.0945 29.8763 49.2496 29.8763C48.8806 29.8763 48.5267 29.7298 48.2657 29.469C48.0049 29.2081 47.8582 28.8544 47.8582 28.4855C47.8582 28.1167 48.0049 27.7629 48.2657 27.5021C48.5267 27.2413 48.8806 27.0947 49.2496 27.0947C51.0945 27.0947 52.8639 26.3621 54.1685 25.058C55.4731 23.7539 56.206 21.9851 56.206 20.1408C56.206 19.7719 56.3526 19.4182 56.6135 19.1574C56.8744 18.8965 57.2282 18.75 57.5972 18.75C57.9662 18.75 58.3201 18.8965 58.5811 19.1574C58.842 19.4182 58.9886 19.7719 58.9886 20.1408C58.9886 21.9851 59.7215 23.7539 61.0261 25.058C62.3306 26.3621 64.1 27.0947 65.945 27.0947C66.314 27.0947 66.6679 27.2413 66.9287 27.5021C67.1897 27.7629 67.3362 28.1167 67.3362 28.4855Z" fill="url(#paint0_linear_108_28)"/>
<path d="M81.25 36.813C81.25 37.1279 81.1249 37.4299 80.9021 37.6525C80.6795 37.8752 80.3774 38.0003 80.0624 38.0003C78.4875 38.0003 76.9771 38.6257 75.8635 39.7389C74.7499 40.8522 74.1243 42.3619 74.1243 43.9363C74.1243 44.2512 73.9991 44.5532 73.7764 44.7758C73.5538 44.9984 73.2516 45.1234 72.9366 45.1234C72.6216 45.1234 72.3196 44.9984 72.0969 44.7758C71.8741 44.5532 71.749 44.2512 71.749 43.9363C71.749 42.3619 71.1234 40.8522 70.0098 39.7389C68.8961 38.6257 67.3858 38.0003 65.8109 38.0003C65.4959 38.0003 65.1939 37.8752 64.9711 37.6525C64.7484 37.4299 64.6233 37.1279 64.6233 36.813C64.6233 36.4982 64.7484 36.1963 64.9711 35.9737C65.1939 35.7509 65.4959 35.6259 65.8109 35.6259C67.3858 35.6259 68.8961 35.0005 70.0098 33.8873C71.1234 32.774 71.749 31.2642 71.749 29.6899C71.749 29.375 71.8741 29.0731 72.0969 28.8504C72.3196 28.6278 72.6216 28.5027 72.9366 28.5027C73.2516 28.5027 73.5538 28.6278 73.7764 28.8504C73.9991 29.0731 74.1243 29.375 74.1243 29.6899C74.1243 31.2642 74.7499 32.774 75.8635 33.8873C76.9771 35.0005 78.4875 35.6259 80.0624 35.6259C80.3774 35.6259 80.6795 35.7509 80.9021 35.9737C81.1249 36.1963 81.25 36.4982 81.25 36.813Z" fill="url(#paint1_linear_108_28)"/>
<path d="M68.1955 46.7031C68.1955 46.9399 68.1014 47.167 67.9339 47.3344C67.7664 47.5019 67.5393 47.5959 67.3023 47.5959C66.1179 47.5959 64.982 48.0663 64.1445 48.9035C63.307 49.7406 62.8365 50.8761 62.8365 52.0601C62.8365 52.297 62.7424 52.5241 62.5749 52.6915C62.4074 52.859 62.1801 52.953 61.9433 52.953C61.7064 52.953 61.4793 52.859 61.3118 52.6915C61.1443 52.5241 61.0501 52.297 61.0501 52.0601C61.0501 50.8761 60.5796 49.7406 59.7421 48.9035C58.9046 48.0663 57.7686 47.5959 56.5843 47.5959C56.3474 47.5959 56.1201 47.5019 55.9526 47.3344C55.7851 47.167 55.6911 46.9399 55.6911 46.7031C55.6911 46.4662 55.7851 46.2391 55.9526 46.0718C56.1201 45.9043 56.3474 45.8102 56.5843 45.8102C57.7686 45.8102 58.9046 45.3399 59.7421 44.5026C60.5796 43.6655 61.0501 42.53 61.0501 41.346C61.0501 41.1091 61.1443 40.882 61.3118 40.7146C61.4793 40.5471 61.7064 40.4531 61.9433 40.4531C62.1801 40.4531 62.4074 40.5471 62.5749 40.7146C62.7424 40.882 62.8365 41.1091 62.8365 41.346C62.8365 42.53 63.307 43.6655 64.1445 44.5026C64.982 45.3399 66.1179 45.8102 67.3023 45.8102C67.5393 45.8102 67.7664 45.9043 67.9339 46.0718C68.1014 46.2391 68.1955 46.4662 68.1955 46.7031Z" fill="url(#paint2_linear_108_28)"/>
<path d="M46.5173 50.447C46.5173 48.9682 45.3185 47.7685 43.8394 47.768C42.3599 47.768 41.1595 48.968 41.1595 50.447C41.1598 51.3667 41.5825 53.1438 42.3631 54.7086C42.7436 55.4712 43.1439 56.047 43.4993 56.4001C43.6593 56.559 43.7733 56.6343 43.8373 56.6703C43.901 56.6347 44.0159 56.5605 44.1774 56.4001C44.5329 56.0471 44.933 55.4712 45.3135 54.7086C46.0941 53.1438 46.5169 51.3667 46.5173 50.447ZM50.9831 50.447C50.9829 52.2392 50.3073 54.7031 49.3106 56.7008C48.8026 57.719 48.1434 58.7537 47.324 59.5673C46.5209 60.3647 45.3413 61.1605 43.8394 61.1608C42.3371 61.1608 41.156 60.3648 40.3526 59.5673C39.5333 58.7537 38.874 57.719 38.3661 56.7008C37.3694 54.7031 36.6939 52.2392 36.6936 50.447C36.6936 46.5023 39.8934 43.3037 43.8394 43.3037C47.785 43.3042 50.9831 46.5027 50.9831 50.447Z" fill="url(#paint3_linear_108_28)"/>
<path d="M52.3238 76.7857V74.5536C52.3238 72.3014 51.4138 70.7348 49.9599 69.6621C48.4293 68.5326 46.1484 67.8572 43.3919 67.8572C40.6355 67.8572 38.3546 68.5326 36.824 69.6621C35.3701 70.7348 34.4601 72.3014 34.4601 74.5536C34.4601 75.7863 33.4605 76.7857 32.2273 76.7857C30.994 76.7857 29.9943 75.7863 29.9943 74.5536C29.9943 70.8756 31.5836 67.9786 34.1701 66.0697C36.6804 64.2175 39.9823 63.3928 43.3919 63.3928C46.8016 63.3928 50.1035 64.2175 52.6138 66.0697C55.2003 67.9786 56.7896 70.8756 56.7896 74.5536V76.7857C56.7896 78.0184 55.7899 79.0178 54.5566 79.0178C53.3234 79.0178 52.3238 78.0184 52.3238 76.7857Z" fill="url(#paint4_linear_108_28)"/>
<path d="M45.7382 81.25C30.8726 81.25 18.9412 69.1783 18.8296 54.2987C18.7458 43.1341 24.0111 37.8618 27.9603 33.9077C31.9095 29.9535 38.8545 28.2343 38.8545 28.2343L39.0835 28.2082C40.2127 28.1379 41.2349 28.9319 41.4232 30.0719C41.6117 31.212 40.8995 32.2932 39.8075 32.5896L39.5829 32.6376L37.6682 33.2487C30.593 35.8848 23.2954 42.8702 23.2954 54.2987C23.2954 66.7221 33.3479 76.7857 45.7382 76.7857C57.0911 76.7857 66.4831 68.3356 67.9739 57.3635C68.1399 56.142 69.2661 55.2858 70.4881 55.4518C71.7095 55.6178 72.5657 56.742 72.4005 57.963C70.6144 71.1111 59.3627 81.25 45.7382 81.25Z" fill="url(#paint5_linear_108_28)"/>
</g>
<defs>
<linearGradient id="paint0_linear_108_28" x1="51.9397" y1="34.7644" x2="72.4712" y2="14.842" gradientUnits="userSpaceOnUse">
<stop stop-color="#0077FF"/>
<stop offset="0.764423" stop-color="#FF05E6"/>
</linearGradient>
<linearGradient id="paint1_linear_108_28" x1="68.1073" y1="42.1728" x2="85.6333" y2="25.1667" gradientUnits="userSpaceOnUse">
<stop stop-color="#0077FF"/>
<stop offset="0.764423" stop-color="#FF05E6"/>
</linearGradient>
<linearGradient id="paint2_linear_108_28" x1="58.3113" y1="50.7339" x2="71.492" y2="37.9443" gradientUnits="userSpaceOnUse">
<stop stop-color="#0077FF"/>
<stop offset="0.764423" stop-color="#FF05E6"/>
</linearGradient>
<linearGradient id="paint3_linear_108_28" x1="39.6879" y1="57.9906" x2="57.9373" y2="43.8256" gradientUnits="userSpaceOnUse">
<stop stop-color="#0077FF"/>
<stop offset="0.764423" stop-color="#FF05E6"/>
</linearGradient>
<linearGradient id="paint4_linear_108_28" x1="30.0595" y1="71.7394" x2="86.5484" y2="16.9255" gradientUnits="userSpaceOnUse">
<stop stop-color="#0077FF"/>
<stop offset="0.764423" stop-color="#FF05E6"/>
</linearGradient>
<linearGradient id="paint5_linear_108_28" x1="30.0595" y1="71.7395" x2="86.5484" y2="16.9255" gradientUnits="userSpaceOnUse">
<stop stop-color="#0077FF"/>
<stop offset="0.764423" stop-color="#FF05E6"/>
</linearGradient>
<clipPath id="clip0_108_28">
<rect width="62.5" height="62.5" fill="white" transform="translate(18.75 18.75)"/>
</clipPath>
</defs>
</svg>
